<svg version="1.1" id="Layer_1" xmlns="http://www.w3.org/2000/svg" xmlns:xlink="http://www.w3.org/1999/xlink" x="0px" y="0px"
	 width="100%" viewBox="0 0 1024 1536" enable-background="new 0 0 1024 1536" xml:space="preserve">
<path fill="transparent" opacity="1.000000" stroke="none" 
	d="
M555.000000,1537.000000 
	C370.000000,1537.000000 185.500000,1537.000000 1.000000,1537.000000 
	C1.000000,1025.000000 1.000000,513.000000 1.000000,1.000000 
	C342.333344,1.000000 683.666687,1.000000 1025.000000,1.000000 
	C1025.000000,513.000000 1025.000000,1025.000000 1025.000000,1537.000000 
	C868.500000,1537.000000 712.000000,1537.000000 555.000000,1537.000000 
M532.041992,1205.841064 
	C534.881287,1221.287231 549.256042,1226.458252 560.395935,1220.300659 
	C586.792236,1205.709839 612.003845,1188.966797 637.610229,1172.959229 
	C661.164856,1158.234375 684.627197,1143.361328 708.097229,1128.501709 
	C726.700562,1116.723389 745.210693,1104.797485 763.841431,1093.062866 
	C784.927429,1079.781494 806.101379,1066.639893 827.237976,1053.438843 
	C840.244385,1045.315552 853.292480,1037.258179 866.243408,1029.047363 
	C873.315308,1024.563843 877.542419,1018.778748 877.045715,1009.564270 
	C876.351257,996.680725 876.737000,983.734009 876.816223,970.815308 
	C876.882996,959.934692 877.337341,949.055237 877.319519,938.175720 
	C877.298401,925.234863 876.923584,912.294983 876.768616,899.353882 
	C876.702820,893.857666 876.342407,888.307251 876.952576,882.875488 
	C877.687561,876.332458 877.205811,870.512695 871.864685,865.956055 
	C865.211609,860.280334 857.488037,860.419128 850.697144,864.283447 
	C835.231445,873.084106 820.300537,882.824951 805.154724,892.187561 
	C787.524475,903.086060 769.914978,914.018250 752.262390,924.880432 
	C736.112183,934.818298 719.873535,944.612915 703.753052,954.598572 
	C688.079224,964.307434 672.526062,974.210754 656.881531,983.967285 
	C646.915283,990.182556 636.786377,996.141113 626.900574,1002.480347 
	C617.337402,1008.612671 607.107788,1013.711243 598.005005,1020.517029 
	C589.655640,1026.759521 580.058472,1030.848999 571.567566,1036.897339 
	C561.877502,1043.799805 551.326538,1049.482788 541.285095,1055.907227 
	C535.855896,1059.380981 531.812683,1063.970215 531.245911,1071.446167 
	C531.164368,1085.265747 531.096130,1099.085449 530.998352,1112.904907 
	C530.813660,1139.023438 530.531982,1165.141846 530.492249,1191.260620 
	C530.485291,1195.858765 531.461365,1200.458374 532.041992,1205.841064 
M531.971191,980.529053 
	C532.103455,981.352661 532.235779,982.176331 532.855530,983.617065 
	C534.106750,985.183228 535.583984,986.619446 536.571106,988.337341 
	C541.500427,996.915710 554.474854,998.781921 562.351196,994.289124 
	C571.135437,989.278564 579.911743,984.246643 588.561768,979.009705 
	C602.545593,970.543518 616.425598,961.905762 630.345520,953.334106 
	C646.054749,943.660645 661.754761,933.972168 677.468323,924.305786 
	C687.759705,917.974915 698.054077,911.648682 708.371948,905.361145 
	C725.368469,895.003540 742.409302,884.718567 759.386536,874.329529 
	C776.791504,863.678650 794.124756,852.910645 811.521606,842.246399 
	C830.727295,830.473206 850.019958,818.840881 869.160583,806.963196 
	C873.971069,803.978149 877.017822,799.533447 876.963196,793.501892 
	C876.892029,785.635010 876.790100,777.768005 876.787170,769.901062 
	C876.777344,743.699158 876.801819,717.497192 876.820740,691.295288 
	C876.851318,648.965088 876.922852,606.634766 876.837952,564.304810 
	C876.832642,561.669373 876.198181,558.689880 874.866333,556.462524 
	C869.238892,547.051392 857.127991,545.142761 846.797791,551.576294 
	C839.184570,556.317749 831.488464,560.928223 823.777039,565.509277 
	C804.266785,577.099548 784.683960,588.568237 765.211792,600.222046 
	C747.212524,610.994324 729.328186,621.958618 711.376404,632.810486 
	C695.597351,642.348816 679.801636,651.859680 664.001038,661.362244 
	C645.831909,672.289246 627.650024,683.195007 609.472473,694.108093 
	C587.649963,707.209351 565.777100,720.227905 544.032837,733.457703 
	C537.486816,737.440491 532.281799,742.676758 531.271240,751.055237 
	C531.180054,758.393677 531.011902,765.732117 531.009705,773.070557 
	C530.989807,839.942566 530.991455,906.814575 531.041870,973.686523 
	C531.043152,975.358826 531.675598,977.030518 532.100342,979.304199 
	C532.131165,979.504456 532.161926,979.704773 531.971191,980.529053 
M344.427460,1144.039551 
	C347.981659,1146.358154 351.501038,1148.732422 355.095581,1150.986694 
	C381.334839,1167.442261 407.563080,1183.915405 433.851135,1200.292725 
	C444.917267,1207.187012 455.917206,1214.231079 467.333954,1220.503052 
	C474.494995,1224.437134 485.688385,1222.484619 490.131866,1214.118408 
	C492.711548,1209.261230 494.326111,1203.476440 494.752991,1197.983032 
	C495.491638,1188.476685 494.972626,1178.872437 494.975128,1169.309204 
	C494.982574,1140.579590 494.988525,1111.849854 494.992340,1083.120239 
	C494.996429,1051.959717 494.997925,1020.799316 494.999695,989.638855 
	C495.001617,955.877625 495.100525,922.115967 494.957458,888.355347 
	C494.897095,874.101562 494.124512,859.850891 494.049133,845.596924 
	C493.985596,833.581848 494.679932,821.563354 494.649841,809.547363 
	C494.602448,790.636902 494.099396,771.727661 494.048767,752.817200 
	C494.024689,743.812866 489.779633,737.578064 482.416687,733.147156 
	C460.674652,720.063232 438.901154,707.031250 417.108521,694.031738 
	C394.595276,680.602234 371.990967,667.324524 349.524200,653.817932 
	C318.802765,635.348694 288.207947,616.669006 257.494385,598.186646 
	C231.826721,582.740784 206.056763,567.465027 180.354355,552.076782 
	C174.511200,548.578430 168.226593,546.484131 161.592972,548.396179 
	C152.910599,550.898804 147.041916,557.462402 147.073181,569.710022 
	C147.355713,680.335205 147.692825,790.960266 148.006165,901.585327 
	C148.037216,912.548035 148.140549,923.512451 147.992096,934.473206 
	C147.746841,952.583618 147.179184,970.690430 147.044296,988.801025 
	C146.987778,996.391052 147.552536,1003.996277 148.086441,1011.576904 
	C148.590302,1018.730835 152.312515,1024.273315 158.206039,1027.993530 
	C174.089767,1038.020020 190.193268,1047.697510 206.136536,1057.630859 
	C233.657120,1074.777100 261.131653,1091.997192 288.607635,1109.214966 
	C306.991882,1120.735229 325.345367,1132.304688 344.427460,1144.039551 
M238.703659,537.853699 
	C244.759888,541.375366 250.861069,544.822266 256.864655,548.431458 
	C284.327881,564.941528 311.776489,581.475952 339.205719,598.042480 
	C365.047455,613.650208 390.853058,629.317688 416.684357,644.942749 
	C443.710724,661.290588 470.758820,677.602600 497.776367,693.965088 
	C507.977325,700.143005 517.950684,699.780640 527.997253,693.498901 
	C536.270325,688.326050 544.721375,683.438049 553.083618,678.407410 
	C572.326965,666.830811 591.573486,655.259399 610.801575,643.657410 
	C633.654968,629.868042 656.455139,615.990295 679.344055,602.260437 
	C698.876465,590.544128 718.536377,579.040710 738.075195,567.334961 
	C753.434021,558.133423 768.678528,548.741211 784.002258,539.480774 
	C800.317139,529.621399 816.806152,520.041687 832.954651,509.917847 
	C845.856445,501.829437 845.184753,483.766052 832.082031,476.022705 
	C815.806824,466.404480 799.518066,456.808105 783.305969,447.084259 
	C769.495483,438.800781 755.827759,430.279480 742.020874,421.989960 
	C720.936951,409.331482 699.744202,396.853912 678.678040,384.166168 
	C657.170593,371.212677 635.777222,358.069824 614.301636,345.063171 
	C596.915710,334.533386 579.507935,324.039032 562.060547,313.611389 
	C549.074036,305.849823 536.108459,298.042725 522.923950,290.628571 
	C518.365417,288.065125 513.013184,286.668762 507.861572,289.037170 
	C500.394440,292.470123 492.905029,295.964081 485.831024,300.122498 
	C463.780548,313.084564 441.889954,326.320007 419.995514,339.545654 
	C393.777863,355.382751 367.633179,371.340637 341.432281,387.205475 
	C321.299683,399.395905 301.124329,411.515594 280.976288,423.680542 
	C254.305481,439.783783 227.573715,455.788116 201.034225,472.105103 
	C195.654999,475.412384 189.807510,479.071136 186.292572,484.059357 
	C179.557693,493.617218 184.491776,505.227875 194.572388,511.209076 
	C209.136841,519.850647 223.586655,528.685364 238.703659,537.853699 
z"/>
<path fill="#007AFF" opacity="1.000000" stroke="none" 
	d="
M344.070038,1143.945801 
	C325.345367,1132.304688 306.991882,1120.735229 288.607635,1109.214966 
	C261.131653,1091.997192 233.657120,1074.777100 206.136536,1057.630859 
	C190.193268,1047.697510 174.089767,1038.020020 158.206039,1027.993530 
	C152.312515,1024.273315 148.590302,1018.730835 148.086441,1011.576904 
	C147.552536,1003.996277 146.987778,996.391052 147.044296,988.801025 
	C147.179184,970.690430 147.746841,952.583618 147.992096,934.473206 
	C148.140549,923.512451 148.037216,912.548035 148.006165,901.585327 
	C147.692825,790.960266 147.355713,680.335205 147.073181,569.710022 
	C147.041916,557.462402 152.910599,550.898804 161.592972,548.396179 
	C168.226593,546.484131 174.511200,548.578430 180.354355,552.076782 
	C206.056763,567.465027 231.826721,582.740784 257.494385,598.186646 
	C288.207947,616.669006 318.802765,635.348694 349.524200,653.817932 
	C371.990967,667.324524 394.595276,680.602234 417.108521,694.031738 
	C438.901154,707.031250 460.674652,720.063232 482.416687,733.147156 
	C489.779633,737.578064 494.024689,743.812866 494.048767,752.817200 
	C494.099396,771.727661 494.602448,790.636902 494.649841,809.547363 
	C494.679932,821.563354 493.985596,833.581848 494.049133,845.596924 
	C494.124512,859.850891 494.897095,874.101562 494.957458,888.355347 
	C495.100525,922.115967 495.001617,955.877625 494.999695,989.638855 
	C494.997925,1020.799316 494.996429,1051.959717 494.992340,1083.120239 
	C494.988525,1111.849854 494.982574,1140.579590 494.975128,1169.309204 
	C494.972626,1178.872437 495.491638,1188.476685 494.752991,1197.983032 
	C494.326111,1203.476440 492.711548,1209.261230 490.131866,1214.118408 
	C485.688385,1222.484619 474.494995,1224.437134 467.333954,1220.503052 
	C455.917206,1214.231079 444.917267,1207.187012 433.851135,1200.292725 
	C407.563080,1183.915405 381.334839,1167.442261 355.095581,1150.986694 
	C351.501038,1148.732422 347.981659,1146.358154 344.070038,1143.945801 
z"/>
<path fill="#007AFF" opacity="1.000000" stroke="none" 
	d="
M238.394516,537.645691 
	C223.586655,528.685364 209.136841,519.850647 194.572388,511.209076 
	C184.491776,505.227875 179.557693,493.617218 186.292572,484.059357 
	C189.807510,479.071136 195.654999,475.412384 201.034225,472.105103 
	C227.573715,455.788116 254.305481,439.783783 280.976288,423.680542 
	C301.124329,411.515594 321.299683,399.395905 341.432281,387.205475 
	C367.633179,371.340637 393.777863,355.382751 419.995514,339.545654 
	C441.889954,326.320007 463.780548,313.084564 485.831024,300.122498 
	C492.905029,295.964081 500.394440,292.470123 507.861572,289.037170 
	C513.013184,286.668762 518.365417,288.065125 522.923950,290.628571 
	C536.108459,298.042725 549.074036,305.849823 562.060547,313.611389 
	C579.507935,324.039032 596.915710,334.533386 614.301636,345.063171 
	C635.777222,358.069824 657.170593,371.212677 678.678040,384.166168 
	C699.744202,396.853912 720.936951,409.331482 742.020874,421.989960 
	C755.827759,430.279480 769.495483,438.800781 783.305969,447.084259 
	C799.518066,456.808105 815.806824,466.404480 832.082031,476.022705 
	C845.184753,483.766052 845.856445,501.829437 832.954651,509.917847 
	C816.806152,520.041687 800.317139,529.621399 784.002258,539.480774 
	C768.678528,548.741211 753.434021,558.133423 738.075195,567.334961 
	C718.536377,579.040710 698.876465,590.544128 679.344055,602.260437 
	C656.455139,615.990295 633.654968,629.868042 610.801575,643.657410 
	C591.573486,655.259399 572.326965,666.830811 553.083618,678.407410 
	C544.721375,683.438049 536.270325,688.326050 527.997253,693.498901 
	C517.950684,699.780640 507.977325,700.143005 497.776367,693.965088 
	C470.758820,677.602600 443.710724,661.290588 416.684357,644.942749 
	C390.853058,629.317688 365.047455,613.650208 339.205719,598.042480 
	C311.776489,581.475952 284.327881,564.941528 256.864655,548.431458 
	C250.861069,544.822266 244.759888,541.375366 238.394516,537.645691 
z"/>
<path fill="#004FA4" opacity="1.000000" stroke="none" 
	d="
M531.998596,751.096130 
	C532.281799,742.676758 537.486816,737.440491 544.032837,733.457703 
	C565.777100,720.227905 587.649963,707.209351 609.472473,694.108093 
	C627.650024,683.195007 645.831909,672.289246 664.001038,661.362244 
	C679.801636,651.859680 695.597351,642.348816 711.376404,632.810486 
	C729.328186,621.958618 747.212524,610.994324 765.211792,600.222046 
	C784.683960,588.568237 804.266785,577.099548 823.777039,565.509277 
	C831.488464,560.928223 839.184570,556.317749 846.797791,551.576294 
	C857.127991,545.142761 869.238892,547.051392 874.866333,556.462524 
	C876.198181,558.689880 876.832642,561.669373 876.837952,564.304810 
	C876.922852,606.634766 876.851318,648.965088 876.820740,691.295288 
	C876.801819,717.497192 876.777344,743.699158 876.787170,769.901062 
	C876.790100,777.768005 876.892029,785.635010 876.963196,793.501892 
	C877.017822,799.533447 873.971069,803.978149 869.160583,806.963196 
	C850.019958,818.840881 830.727295,830.473206 811.521606,842.246399 
	C794.124756,852.910645 776.791504,863.678650 759.386536,874.329529 
	C742.409302,884.718567 725.368469,895.003540 708.371948,905.361145 
	C698.054077,911.648682 687.759705,917.974915 677.468323,924.305786 
	C661.754761,933.972168 646.054749,943.660645 630.345520,953.334106 
	C616.425598,961.905762 602.545593,970.543518 588.561768,979.009705 
	C579.911743,984.246643 571.135437,989.278564 562.351196,994.289124 
	C554.474854,998.781921 541.500427,996.915710 536.571106,988.337341 
	C535.583984,986.619446 534.106750,985.183228 532.879517,983.143860 
	C532.666565,981.748779 532.429688,980.826904 532.192749,979.905029 
	C532.161926,979.704773 532.131165,979.504456 532.006958,978.895813 
	C531.913635,978.487427 531.927795,978.250671 532.152832,977.873535 
	C532.559143,975.522461 532.897827,973.548645 532.898865,971.574707 
	C532.936707,900.177429 532.949524,828.780151 532.916138,757.382874 
	C532.915344,755.621704 532.354431,753.860718 532.026184,751.849609 
	C531.997864,751.431763 531.998230,751.263916 531.998596,751.096130 
z"/>
<path fill="#004FA4" opacity="1.000000" stroke="none" 
	d="
M532.001770,1071.022217 
	C531.812683,1063.970215 535.855896,1059.380981 541.285095,1055.907227 
	C551.326538,1049.482788 561.877502,1043.799805 571.567566,1036.897339 
	C580.058472,1030.848999 589.655640,1026.759521 598.005005,1020.517029 
	C607.107788,1013.711243 617.337402,1008.612671 626.900574,1002.480347 
	C636.786377,996.141113 646.915283,990.182556 656.881531,983.967285 
	C672.526062,974.210754 688.079224,964.307434 703.753052,954.598572 
	C719.873535,944.612915 736.112183,934.818298 752.262390,924.880432 
	C769.914978,914.018250 787.524475,903.086060 805.154724,892.187561 
	C820.300537,882.824951 835.231445,873.084106 850.697144,864.283447 
	C857.488037,860.419128 865.211609,860.280334 871.864685,865.956055 
	C877.205811,870.512695 877.687561,876.332458 876.952576,882.875488 
	C876.342407,888.307251 876.702820,893.857666 876.768616,899.353882 
	C876.923584,912.294983 877.298401,925.234863 877.319519,938.175720 
	C877.337341,949.055237 876.882996,959.934692 876.816223,970.815308 
	C876.737000,983.734009 876.351257,996.680725 877.045715,1009.564270 
	C877.542419,1018.778748 873.315308,1024.563843 866.243408,1029.047363 
	C853.292480,1037.258179 840.244385,1045.315552 827.237976,1053.438843 
	C806.101379,1066.639893 784.927429,1079.781494 763.841431,1093.062866 
	C745.210693,1104.797485 726.700562,1116.723389 708.097229,1128.501709 
	C684.627197,1143.361328 661.164856,1158.234375 637.610229,1172.959229 
	C612.003845,1188.966797 586.792236,1205.709839 560.395935,1220.300659 
	C549.256042,1226.458252 534.881287,1221.287231 532.044678,1205.138184 
	C532.069580,1204.227783 532.091919,1204.020508 532.323242,1203.477051 
	C532.671875,1201.826660 532.932983,1200.512207 532.933594,1199.197876 
	C532.951904,1158.299927 532.953369,1117.402100 532.906189,1076.504150 
	C532.904541,1075.067383 532.380981,1073.630981 532.063477,1071.902466 
	C532.018127,1071.414307 532.009949,1071.218262 532.001770,1071.022217 
z"/>
<path fill="#0565CB" opacity="1.000000" stroke="none" 
	d="
M531.927795,978.250671 
	C531.927795,978.250671 531.913635,978.487427 531.963623,978.594971 
	C531.675598,977.030518 531.043152,975.358826 531.041870,973.686523 
	C530.991455,906.814575 530.989807,839.942566 531.009705,773.070557 
	C531.011902,765.732117 531.180054,758.393677 531.634888,751.075684 
	C531.998230,751.263916 531.997864,751.431763 532.020020,752.309265 
	C532.024963,780.320312 532.004089,807.621582 531.990723,834.922913 
	C531.967346,882.698853 531.948547,930.474731 531.927795,978.250671 
z"/>
<path fill="#0363C6" opacity="1.000000" stroke="none" 
	d="
M531.623840,1071.234131 
	C532.009949,1071.218262 532.018127,1071.414307 532.052063,1072.352295 
	C532.089966,1116.667236 532.102112,1160.240112 532.114258,1203.813110 
	C532.091919,1204.020508 532.069580,1204.227783 532.015381,1204.746338 
	C531.461365,1200.458374 530.485291,1195.858765 530.492249,1191.260620 
	C530.531982,1165.141846 530.813660,1139.023438 530.998352,1112.904907 
	C531.096130,1099.085449 531.164368,1085.265747 531.623840,1071.234131 
z"/>
<path fill="#002969" opacity="1.000000" stroke="none" 
	d="
M532.081970,980.217041 
	C532.429688,980.826904 532.666565,981.748779 532.635742,982.835327 
	C532.235779,982.176331 532.103455,981.352661 532.081970,980.217041 
z"/>
<path fill="#002969" opacity="1.000000" stroke="none" 
	d="
M532.152832,977.873535 
	C531.948547,930.474731 531.967346,882.698853 531.990723,834.922913 
	C532.004089,807.621582 532.024963,780.320312 532.048645,752.559326 
	C532.354431,753.860718 532.915344,755.621704 532.916138,757.382874 
	C532.949524,828.780151 532.936707,900.177429 532.898865,971.574707 
	C532.897827,973.548645 532.559143,975.522461 532.152832,977.873535 
z"/>
<path fill="#002969" opacity="1.000000" stroke="none" 
	d="
M532.323242,1203.477051 
	C532.102112,1160.240112 532.089966,1116.667236 532.089233,1072.644287 
	C532.380981,1073.630981 532.904541,1075.067383 532.906189,1076.504150 
	C532.953369,1117.402100 532.951904,1158.299927 532.933594,1199.197876 
	C532.932983,1200.512207 532.671875,1201.826660 532.323242,1203.477051 
z"/>
</svg>