<svg width="315" height="87" viewBox="0 0 315 87" fill="none" xmlns="http://www.w3.org/2000/svg">
<path d="M3.11598 41.5877C2.71664 41.5654 2.31964 41.6619 1.97514 41.8652C1.63064 42.0685 1.35412 42.3693 1.18051 42.7298C1.00691 43.0902 0.944007 43.4941 0.999768 43.8903C1.05553 44.2865 1.22744 44.6572 1.49379 44.9557C1.76014 45.2542 2.10896 45.467 2.49617 45.5672C2.88338 45.6675 3.2916 45.6506 3.66925 45.5188C4.0469 45.387 4.37702 45.1462 4.61789 44.8268C4.85876 44.5074 4.99957 44.1237 5.02253 43.7243C5.03779 43.4587 5.00056 43.1928 4.91298 42.9416C4.82539 42.6905 4.68916 42.459 4.51208 42.2606C4.33501 42.0621 4.12056 41.9006 3.881 41.7851C3.64144 41.6697 3.38148 41.6026 3.11598 41.5877Z" fill="#272727"/>
<path d="M26.4737 43.1765C26.3793 44.8379 26.9476 46.4689 28.0539 47.7117C29.1602 48.9544 30.7142 49.7074 32.3748 49.8054H32.7171C33.9404 49.804 35.1365 49.4444 36.1578 48.7709C37.1791 48.0974 37.9809 47.1395 38.4643 46.0154C38.9477 44.8913 39.0914 43.6502 38.8778 42.4453C38.6642 41.2404 38.1026 40.1245 37.2624 39.2352C36.4221 38.3459 35.3398 37.7222 34.1493 37.441C32.9587 37.1599 31.712 37.2336 30.5628 37.6531C29.4137 38.0726 28.4125 38.8196 27.6828 39.8017C26.9531 40.7838 26.5268 41.9582 26.4566 43.1799L26.4737 43.1765Z" fill="#272727"/>
<path d="M3.11598 41.5877C2.71664 41.5654 2.31964 41.6619 1.97514 41.8652C1.63064 42.0685 1.35412 42.3693 1.18051 42.7298C1.00691 43.0902 0.944007 43.4941 0.999768 43.8903C1.05553 44.2865 1.22744 44.6572 1.49379 44.9557C1.76014 45.2542 2.10896 45.467 2.49617 45.5672C2.88338 45.6675 3.2916 45.6506 3.66925 45.5188C4.0469 45.387 4.37702 45.1462 4.61789 44.8268C4.85876 44.5074 4.99957 44.1237 5.02253 43.7243C5.03779 43.4587 5.00056 43.1928 4.91298 42.9416C4.82539 42.6905 4.68916 42.459 4.51208 42.2606C4.33501 42.0621 4.12056 41.9006 3.881 41.7851C3.64144 41.6697 3.38148 41.6026 3.11598 41.5877Z" fill="#272727"/>
<path d="M26.0767 6.80981C26.4324 6.62711 26.726 6.34323 26.9208 5.99392C27.1155 5.64461 27.2026 5.24547 27.1711 4.84676C27.1395 4.44805 26.9908 4.06758 26.7435 3.75325C26.4963 3.43892 26.1617 3.20478 25.7817 3.0803C25.4017 2.95582 24.9934 2.94656 24.6082 3.0537C24.223 3.16083 23.8781 3.37957 23.6169 3.68238C23.3557 3.98519 23.1899 4.35852 23.1403 4.7554C23.0907 5.15227 23.1597 5.55494 23.3384 5.91272C23.4578 6.15284 23.6238 6.36681 23.8266 6.5422C24.0294 6.7176 24.2651 6.8509 24.5199 6.93438C24.7747 7.01785 25.0435 7.04982 25.3108 7.02844C25.5781 7.00706 25.8384 6.93274 26.0767 6.80981Z" fill="#272727"/>
<path d="M32.433 17.8968C32.9854 17.6181 33.4427 17.1818 33.7472 16.6431C34.0518 16.1044 34.1898 15.4875 34.1438 14.8703C34.0979 14.2531 33.8701 13.6634 33.4892 13.1758C33.1083 12.6881 32.5914 12.3244 32.0039 12.1305C31.4163 11.9367 30.7845 11.9215 30.1883 12.0868C29.5921 12.2521 29.0583 12.5905 28.6544 13.0592C28.2504 13.528 27.9945 14.106 27.9189 14.7202C27.8433 15.3345 27.9515 15.9573 28.2297 16.5101C28.4142 16.8777 28.6694 17.2052 28.9807 17.4739C29.2919 17.7426 29.6532 17.9473 30.0436 18.0761C30.4341 18.2049 30.8462 18.2554 31.2562 18.2246C31.6662 18.1939 32.0661 18.0825 32.433 17.8968Z" fill="#272727"/>
<path d="M11.0434 25.5222C11.4692 25.8025 11.9686 25.9502 12.4783 25.9467C12.9881 25.9431 13.4853 25.7885 13.9072 25.5022C14.329 25.216 14.6566 24.811 14.8484 24.3386C15.0402 23.8661 15.0876 23.3474 14.9847 22.8479C14.8818 22.3485 14.6332 21.8908 14.2702 21.5327C13.9073 21.1747 13.4463 20.9323 12.9457 20.8363C12.445 20.7403 11.9272 20.7949 11.4576 20.9933C10.988 21.1917 10.5877 21.5249 10.3075 21.9509C10.1214 22.2337 9.99277 22.5504 9.92904 22.883C9.8653 23.2155 9.86767 23.5574 9.93601 23.889C10.0043 24.2206 10.1373 24.5355 10.3273 24.8157C10.5173 25.096 10.7606 25.336 11.0434 25.5222Z" fill="#272727"/>
<path d="M14.8531 40.4475C14.2354 40.4126 13.6213 40.5617 13.0884 40.8759C12.5554 41.1901 12.1275 41.6553 11.8588 42.2127C11.5901 42.7701 11.4926 43.3947 11.5787 44.0075C11.6648 44.6203 11.9305 45.1939 12.3424 45.6556C12.7542 46.1174 13.2937 46.4466 13.8926 46.6017C14.4914 46.7569 15.1228 46.7309 15.707 46.5271C16.2911 46.3234 16.8017 45.9509 17.1743 45.4569C17.5469 44.9629 17.7647 44.3695 17.8002 43.7517C17.8242 43.341 17.767 42.9296 17.6318 42.5411C17.4966 42.1526 17.2861 41.7946 17.0123 41.4876C16.7385 41.1807 16.4068 40.9308 16.0363 40.7523C15.6658 40.5738 15.2637 40.4702 14.8531 40.4475Z" fill="#272727"/>
<path d="M11.3857 61.4882C10.9308 61.7181 10.5543 62.0779 10.3037 62.5218C10.0532 62.9658 9.93986 63.4742 9.97807 63.9826C10.0163 64.491 10.2043 64.9766 10.5184 65.3782C10.8325 65.7797 11.2585 66.079 11.7426 66.2384C12.2268 66.3978 12.7473 66.41 13.2383 66.2735C13.7294 66.137 14.169 65.8579 14.5015 65.4715C14.834 65.0851 15.0446 64.6088 15.1066 64.1028C15.1685 63.5967 15.0791 63.0836 14.8496 62.6284C14.6975 62.3256 14.4871 62.0558 14.2305 61.8345C13.9739 61.6132 13.6761 61.4448 13.3543 61.3388C13.0325 61.2329 12.6929 61.1916 12.3551 61.2172C12.0173 61.2428 11.6878 61.3349 11.3857 61.4882Z" fill="#272727"/>
<path d="M23.5472 33.9795C24.1564 34.3789 24.8703 34.5886 25.5987 34.5821C26.327 34.5757 27.0371 34.3533 27.6392 33.9431C28.2412 33.533 28.7081 32.9535 28.9809 32.2779C29.2537 31.6023 29.3201 30.8609 29.1718 30.1476C29.0234 29.4342 28.6669 28.7809 28.1474 28.2702C27.6279 27.7595 26.9686 27.4144 26.253 27.2784C25.5374 27.1425 24.7976 27.2219 24.1271 27.5066C23.4566 27.7912 22.8855 28.2684 22.4861 28.8777C22.2208 29.2824 22.0378 29.7353 21.9476 30.2108C21.8574 30.6862 21.8616 31.1747 21.9602 31.6485C22.0587 32.1222 22.2496 32.572 22.5219 32.9719C22.7942 33.3719 23.1426 33.7143 23.5472 33.9795Z" fill="#272727"/>
<path d="M62.1299 17.6503C62.6484 17.9893 63.2556 18.1668 63.875 18.1606C64.4943 18.1544 65.0979 17.9646 65.6094 17.6152C66.1209 17.2659 66.5174 16.7727 66.7487 16.198C66.98 15.6232 67.0358 14.9928 66.909 14.3864C66.7822 13.7799 66.4785 13.2247 66.0363 12.7909C65.5941 12.3571 65.0333 12.0642 64.4247 11.9492C63.8161 11.8342 63.1871 11.9023 62.6172 12.1449C62.0473 12.3875 61.5621 12.7937 61.2229 13.3121C60.9973 13.6565 60.8418 14.0421 60.7655 14.4468C60.6891 14.8514 60.6934 15.2672 60.7779 15.6702C60.8625 16.0732 61.0258 16.4556 61.2584 16.7954C61.491 17.1352 61.7883 17.4257 62.1334 17.6503H62.1299Z" fill="#272727"/>
<path d="M68.5513 6.59752C68.8866 6.81695 69.2794 6.932 69.6801 6.92815C70.0807 6.92429 70.4713 6.80169 70.8023 6.57586C71.1333 6.35002 71.39 6.03108 71.5398 5.65935C71.6897 5.28762 71.726 4.87979 71.6442 4.48741C71.5624 4.09503 71.3662 3.73571 71.0803 3.45489C70.7944 3.17406 70.4317 2.98432 70.038 2.90966C69.6443 2.835 69.2374 2.87877 68.8686 3.03543C68.4997 3.19209 68.1856 3.45462 67.966 3.78982C67.82 4.01258 67.7193 4.26194 67.6697 4.52364C67.6201 4.78535 67.6225 5.05426 67.6769 5.31502C67.7313 5.57578 67.8365 5.82326 67.9865 6.04332C68.1365 6.26338 68.3284 6.4517 68.5513 6.59752Z" fill="#272727"/>
<path d="M62.6228 37.2118C60.9866 37.1555 59.3933 37.742 58.1838 38.8457C56.9743 39.9495 56.2445 41.4828 56.1506 43.1179C56.0567 44.7529 56.6061 46.3598 57.6813 47.5949C58.7565 48.8299 60.2721 49.595 61.904 49.7266H62.2669C63.4754 49.726 64.658 49.3757 65.672 48.7179C66.686 48.0602 67.4881 47.123 67.9816 46.0194C68.4751 44.9159 68.639 43.6931 68.4534 42.4985C68.2678 41.3038 67.7407 40.1884 66.9357 39.2868C66.3904 38.672 65.7282 38.1719 64.9877 37.8156C64.2473 37.4594 63.4434 37.2541 62.6228 37.2118Z" fill="#272727"/>
<path d="M34.4901 33.5447C35.172 34.9227 36.3363 36.002 37.7616 36.5774C39.187 37.1528 40.7741 37.1842 42.2211 36.6656C43.668 36.147 44.874 35.1145 45.6098 33.7645C46.3455 32.4145 46.5596 30.8411 46.2115 29.3435C45.8633 27.8459 44.9771 26.5285 43.7214 25.6417C42.4657 24.755 40.928 24.3608 39.4007 24.5341C37.8735 24.7074 36.4631 25.4361 35.4378 26.5816C34.4125 27.7272 33.8438 29.2096 33.8398 30.7472C33.8364 31.7176 34.0591 32.6754 34.4901 33.5447Z" fill="#272727"/>
<path d="M83.6085 25.5153C84.0635 25.2856 84.4402 24.9262 84.691 24.4824C84.9418 24.0387 85.0555 23.5305 85.0177 23.0221C84.9798 22.5138 84.7922 22.028 84.4785 21.6263C84.1648 21.2246 83.7391 20.9249 83.2551 20.7651C82.7712 20.6053 82.2508 20.5927 81.7597 20.7287C81.2685 20.8647 80.8287 21.1433 80.4958 21.5293C80.1629 21.9152 79.9519 22.3913 79.8894 22.8972C79.8269 23.4031 79.9157 23.9162 80.1446 24.3717C80.4526 24.9825 80.9905 25.4461 81.64 25.6605C82.2895 25.875 82.9975 25.8227 83.6085 25.5153Z" fill="#272727"/>
<path d="M67.7264 27.5115C67.0758 27.8393 66.537 28.3527 66.1781 28.9868C65.8192 29.6209 65.6563 30.3472 65.71 31.0739C65.7638 31.8006 66.0318 32.495 66.48 33.0693C66.9283 33.6437 67.5368 34.0722 68.2285 34.3006C68.9202 34.529 69.6641 34.5471 70.3661 34.3526C71.0681 34.1581 71.6967 33.7597 72.1724 33.2078C72.6481 32.656 72.9495 31.9754 73.0385 31.2522C73.1275 30.529 73.0001 29.7956 72.6724 29.1448C72.4549 28.7127 72.1544 28.3276 71.7881 28.0117C71.4217 27.6958 70.9968 27.4551 70.5375 27.3034C70.0783 27.1518 69.5936 27.0921 69.1113 27.1278C68.6289 27.1635 68.1583 27.2939 67.7264 27.5115Z" fill="#272727"/>
<path d="M47.2609 5.65249C47.769 5.6812 48.2743 5.55878 48.713 5.30067C49.1516 5.04257 49.5041 4.66033 49.7259 4.20214C49.9478 3.74395 50.029 3.23031 49.9595 2.72599C49.89 2.22166 49.6727 1.74922 49.3352 1.36822C48.9976 0.987211 48.5549 0.714699 48.0627 0.585031C47.5706 0.455364 47.0511 0.474346 46.5697 0.639585C46.0883 0.804824 45.6666 1.10892 45.3577 1.51355C45.0489 1.91817 44.8667 2.40521 44.8341 2.91327C44.8123 3.25281 44.858 3.59331 44.9684 3.91513C45.0787 4.23696 45.2517 4.53374 45.4773 4.78838C45.7029 5.04301 45.9767 5.25046 46.2828 5.39877C46.5889 5.54708 46.9213 5.63331 47.2609 5.65249Z" fill="#272727"/>
<path d="M47.2335 21.879C47.9607 21.9204 48.6839 21.7453 49.3115 21.3757C49.9392 21.006 50.4432 20.4585 50.7599 19.8024C51.0765 19.1462 51.1916 18.4109 51.0905 17.6894C50.9894 16.9678 50.6767 16.2924 50.192 15.7486C49.7072 15.2049 49.0722 14.817 48.3671 14.6343C47.662 14.4515 46.9186 14.4819 46.2308 14.7217C45.5431 14.9616 44.9418 15.4 44.5031 15.9816C44.0644 16.5632 43.808 17.2619 43.7662 17.9893C43.711 18.9649 44.0452 19.9225 44.6953 20.6518C45.3454 21.3811 46.2584 21.8225 47.2335 21.879Z" fill="#272727"/>
<path d="M27.2781 59.4885C27.9287 59.1608 28.4675 58.6474 28.8264 58.0133C29.1853 57.3792 29.3482 56.6529 29.2944 55.9262C29.2407 55.1995 28.9727 54.5051 28.5244 53.9307C28.0761 53.3564 27.4677 52.9279 26.7759 52.6995C26.0842 52.4711 25.3403 52.453 24.6383 52.6475C23.9363 52.842 23.3078 53.2404 22.8321 53.7922C22.3564 54.3441 22.055 55.0247 21.966 55.7479C21.877 56.4711 22.0044 57.2045 22.3321 57.8553C22.7721 58.7273 23.5401 59.3891 24.4674 59.6953C25.3947 60.0015 26.4056 59.9271 27.2781 59.4885Z" fill="#272727"/>
<path d="M49.6124 27.2547C48.8477 28.4214 48.4939 29.8098 48.6068 31.2003C48.7198 32.5908 49.2932 33.9039 50.2362 34.9317C51.1792 35.9595 52.438 36.6433 53.8133 36.8749C55.1886 37.1064 56.6018 36.8725 57.8292 36.2101C59.0566 35.5478 60.0281 34.4948 60.5898 33.2179C61.1516 31.941 61.2716 30.5132 60.9308 29.1604C60.59 27.8076 59.8079 26.6072 58.7083 25.7491C57.6087 24.8911 56.2543 24.4244 54.8597 24.423C53.8187 24.4214 52.7937 24.6795 51.8775 25.1739C50.9613 25.6683 50.1828 26.3835 49.6124 27.2547Z" fill="#272727"/>
<path d="M60.5041 53.4588C60.0022 52.4633 59.2439 51.6198 58.3074 51.0153C57.3709 50.4107 56.2901 50.0671 55.1766 50.0199C54.063 49.9726 52.9571 50.2234 51.9727 50.7464C50.9884 51.2695 50.1614 52.0457 49.5771 52.9951C48.9928 53.9445 48.6723 55.0327 48.6486 56.1474C48.625 57.2621 48.8991 58.3629 49.4427 59.3362C49.9863 60.3095 50.7796 61.1202 51.7409 61.6844C52.7022 62.2487 53.7965 62.5462 54.9111 62.5462C55.8914 62.5385 56.8567 62.3041 57.7315 61.8614C59.2107 61.1124 60.3329 59.8077 60.8525 58.2329C61.3721 56.6581 61.2468 54.9414 60.5041 53.4588Z" fill="#272727"/>
<path d="M71.4505 53.0205C70.8415 52.6207 70.1277 52.4104 69.3993 52.4163C68.6709 52.4223 67.9606 52.6441 67.3582 53.0539C66.7559 53.4636 66.2885 54.0428 66.0152 54.7183C65.742 55.3937 65.6751 56.1351 65.823 56.8486C65.9709 57.5621 66.327 58.2157 66.8462 58.7267C67.3655 59.2378 68.0246 59.5833 68.7401 59.7197C69.4557 59.856 70.1956 59.777 70.8663 59.4927C71.537 59.2084 72.1084 58.7315 72.5081 58.1224C72.7736 57.7179 72.9567 57.2651 73.0472 56.7898C73.1377 56.3145 73.1338 55.8261 73.0356 55.3523C72.9373 54.8786 72.7468 54.4288 72.4748 54.0287C72.2029 53.6286 71.8548 53.2861 71.4505 53.0205Z" fill="#272727"/>
<path d="M83.4442 43.6079C83.4791 42.99 83.3301 42.3757 83.016 41.8426C82.7019 41.3095 82.2368 40.8814 81.6796 40.6127C81.1224 40.3439 80.498 40.2463 79.8854 40.3324C79.2728 40.4185 78.6995 40.6844 78.2379 41.0964C77.7763 41.5084 77.4471 42.048 77.2921 42.6471C77.137 43.2461 77.163 43.8778 77.3667 44.4621C77.5704 45.0464 77.9426 45.5572 78.4365 45.9299C78.9303 46.3026 79.5236 46.5205 80.1412 46.556C80.5516 46.5796 80.9627 46.522 81.3509 46.3866C81.739 46.2512 82.0968 46.0406 82.4035 45.7668C82.7103 45.493 82.9601 45.1614 83.1387 44.7909C83.3172 44.4205 83.4211 44.0185 83.4442 43.6079Z" fill="#272727"/>
<path d="M92.111 41.3788C91.7109 41.3558 91.3129 41.452 90.9674 41.6552C90.622 41.8584 90.3445 42.1595 90.1701 42.5205C89.9957 42.8815 89.9322 43.2861 89.9877 43.6831C90.0432 44.0802 90.2151 44.4518 90.4818 44.7512C90.7484 45.0505 91.0978 45.2639 91.4857 45.3646C91.8737 45.4653 92.2827 45.4486 92.6612 45.3167C93.0397 45.1848 93.3705 44.9436 93.612 44.6236C93.8534 44.3036 93.9945 43.9191 94.0175 43.5189C94.0475 42.9824 93.8636 42.4559 93.5062 42.0548C93.1489 41.6537 92.6472 41.4106 92.111 41.3788Z" fill="#272727"/>
<path d="M83.9508 61.4779C83.5245 61.1986 83.0249 61.0519 82.5152 61.0566C82.0056 61.0612 81.5087 61.2169 81.0875 61.5039C80.6663 61.791 80.3396 62.1965 80.1487 62.6693C79.9579 63.142 79.9114 63.6608 80.0152 64.1599C80.119 64.6591 80.3685 65.1163 80.732 65.4736C81.0955 65.831 81.5568 66.0725 82.0575 66.1677C82.5582 66.2629 83.0759 66.2074 83.5451 66.0083C84.0143 65.8092 84.414 65.4755 84.6936 65.0492C84.8798 64.7661 85.0084 64.449 85.0718 64.1161C85.1353 63.7832 85.1324 63.4411 85.0634 63.1093C84.9944 62.7775 84.8606 62.4626 84.6697 62.1827C84.4788 61.9027 84.2345 61.6632 83.9508 61.4779Z" fill="#272727"/>
<path d="M26.4464 80.4025C26.1113 80.1826 25.7186 80.067 25.3179 80.0703C24.9172 80.0736 24.5265 80.1957 24.1951 80.4212C23.8638 80.6466 23.6067 80.9652 23.4563 81.3368C23.306 81.7084 23.2692 82.1162 23.3505 82.5088C23.4319 82.9013 23.6277 83.2609 23.9133 83.542C24.199 83.8232 24.5615 84.0133 24.9551 84.0884C25.3488 84.1635 25.7558 84.1202 26.1248 83.9638C26.4938 83.8075 26.8082 83.5453 27.0283 83.2102C27.1744 82.9877 27.2753 82.7385 27.3252 82.4769C27.375 82.2154 27.3729 81.9465 27.3188 81.6858C27.2648 81.425 27.1599 81.1775 27.0102 80.9573C26.8605 80.7371 26.6689 80.5486 26.4464 80.4025Z" fill="#272727"/>
<path d="M68.9175 80.1902C68.5618 80.373 68.2682 80.6568 68.0734 81.0061C67.8787 81.3555 67.7916 81.7546 67.8232 82.1533C67.8547 82.552 68.0034 82.9325 68.2507 83.2468C68.4979 83.5611 68.8325 83.7953 69.2125 83.9198C69.5925 84.0442 70.0008 84.0535 70.386 83.9464C70.7712 83.8392 71.1161 83.6205 71.3773 83.3177C71.6385 83.0149 71.8043 82.6415 71.8539 82.2447C71.9035 81.8478 71.8345 81.4451 71.6558 81.0873C71.537 80.8497 71.3724 80.6378 71.1716 80.4639C70.9707 80.2899 70.7376 80.1573 70.4854 80.0737C70.2333 79.99 69.9671 79.957 69.7022 79.9764C69.4373 79.9958 69.1787 80.0673 68.9415 80.1868L68.9175 80.1902Z" fill="#272727"/>
<path d="M45.3818 59.7351C46.1449 58.5694 46.4975 57.1824 46.384 55.7937C46.2704 54.4049 45.6971 53.0937 44.7548 52.0676C43.8125 51.0414 42.555 50.3589 41.1813 50.1281C39.8076 49.8974 38.3962 50.1314 37.1705 50.7933C35.9448 51.4552 34.9747 52.5071 34.4138 53.7826C33.853 55.058 33.7333 56.4841 34.0739 57.8352C34.4144 59.1863 35.1957 60.3853 36.294 61.2422C37.3923 62.0992 38.745 62.5653 40.1379 62.5667C41.1783 62.5675 42.2025 62.309 43.118 61.8147C44.0335 61.3203 44.8115 60.6056 45.3818 59.7351Z" fill="#272727"/>
<path d="M32.8643 69.3532C32.3466 69.0144 31.7401 68.8367 31.1215 68.8427C30.5029 68.8486 29.8999 69.0379 29.3889 69.3866C28.8778 69.7353 28.4815 70.2277 28.2501 70.8016C28.0187 71.3755 27.9626 72.0052 28.0889 72.611C28.2152 73.2168 28.5182 73.7715 28.9596 74.2051C29.401 74.6387 29.961 74.9316 30.5688 75.0469C31.1766 75.1622 31.8049 75.0946 32.3744 74.8527C32.9438 74.6109 33.4287 74.2055 33.7679 73.688C33.9938 73.3442 34.1496 72.9592 34.2264 72.5551C34.3032 72.151 34.2995 71.7357 34.2156 71.333C34.1316 70.9303 33.9691 70.5481 33.7372 70.2083C33.5053 69.8686 33.2087 69.578 32.8643 69.3532Z" fill="#272727"/>
<path d="M47.4697 81.3476C46.9608 81.3186 46.4548 81.4412 46.0156 81.6999C45.5764 81.9586 45.2237 82.3418 45.0021 82.801C44.7806 83.2602 44.7001 83.7748 44.7709 84.2797C44.8417 84.7846 45.0605 85.2573 45.3998 85.6378C45.739 86.0183 46.1834 86.2897 46.6769 86.4176C47.1703 86.5455 47.6905 86.5241 48.1718 86.3563C48.6531 86.1885 49.0738 85.8817 49.3808 85.4746C49.6878 85.0676 49.8673 84.5787 49.8965 84.0697C49.9349 83.3869 49.7009 82.7169 49.2459 82.2066C48.7909 81.6962 48.1521 81.3873 47.4697 81.3476Z" fill="#272727"/>
<path d="M47.4971 65.1245C46.7701 65.0811 46.0465 65.2544 45.4179 65.6223C44.7893 65.9902 44.2839 66.5363 43.9655 67.1916C43.6471 67.8468 43.53 68.5818 43.6291 69.3036C43.7282 70.0253 44.039 70.7015 44.5222 71.2466C45.0054 71.7917 45.6394 72.1813 46.3439 72.366C47.0484 72.5508 47.7918 72.5225 48.4802 72.2846C49.1686 72.0468 49.7711 71.6102 50.2114 71.0299C50.6518 70.4496 50.9103 69.7517 50.9542 69.0245C50.9839 68.5412 50.9179 68.0568 50.7601 67.599C50.6023 67.1413 50.3558 66.7192 50.0346 66.3569C49.7135 65.9946 49.324 65.6993 48.8886 65.4878C48.4532 65.2763 47.9803 65.1529 47.4971 65.1245Z" fill="#272727"/>
<path d="M62.5612 69.1032C62.009 69.3842 61.5525 69.8227 61.2494 70.3633C60.9463 70.9038 60.8104 71.5222 60.8587 72.14C60.907 72.7579 61.1374 73.3476 61.5208 73.8345C61.9042 74.3213 62.4233 74.6835 63.0125 74.8752C63.6017 75.0668 64.2345 75.0794 64.8308 74.9112C65.4271 74.7431 65.9602 74.4018 66.3626 73.9305C66.765 73.4593 67.0186 72.8792 67.0913 72.2637C67.1641 71.6482 67.0528 71.025 66.7714 70.4728C66.3957 69.7344 65.7423 69.1753 64.9548 68.9185C64.1673 68.6617 63.3101 68.7281 62.5715 69.1032H62.5612Z" fill="#272727"/>
<path d="M113.124 44.7789H132.532V49.0692H118.156V56.3932H131.115V60.687H118.163V71.7911H113.124V44.7789Z" fill="#272727"/>
<path d="M133.87 61.4471C133.87 54.0067 137.293 50.6203 144.064 50.6203C150.834 50.6203 154.26 54.0067 154.26 61.4471C154.26 68.8875 150.837 72.2773 144.064 72.2773C137.29 72.2773 133.87 68.8772 133.87 61.4471ZM149.379 61.7244V61.1732C149.379 56.6843 147.842 54.4792 144.064 54.4792C140.285 54.4792 138.751 56.6843 138.751 61.1732V61.7244C138.751 66.2133 140.247 68.4184 144.064 68.4184C147.88 68.4184 149.379 66.1996 149.379 61.7107V61.7244Z" fill="#272727"/>
<path d="M158.351 65.056V51.0791H163.074V64.2308C163.074 67.1823 164.532 68.1685 166.894 68.1685C169.492 68.1685 171.539 66.0798 171.539 63.1283V51.0791H176.263V71.7911H172.367L171.974 69.0347H171.696C170.929 70.0676 169.923 70.9002 168.766 71.4622C167.608 72.0243 166.332 72.2991 165.046 72.2636C161.068 72.2636 158.351 70.3496 158.351 65.056Z" fill="#272727"/>
<path d="M181.773 51.0791H185.669L186.062 53.8355H186.34C187.108 52.7996 188.115 51.965 189.276 51.4028C190.436 50.8406 191.715 50.5674 193.004 50.6066C196.94 50.6066 199.696 52.5343 199.696 57.7971V71.7774H194.972V58.6394C194.972 55.6844 193.514 54.7017 191.152 54.7017C188.554 54.7017 186.5 56.787 186.5 59.7351V71.7842H181.777L181.773 51.0791Z" fill="#272727"/>
<path d="M203.738 61.3957C203.738 53.9519 207.082 50.6066 211.689 50.6066C214.524 50.6066 216.649 51.5516 217.909 53.4794H218.145V43.3203H222.869V71.7911H218.973L218.58 69.0347H218.333C216.964 71.1987 214.63 72.2636 211.994 72.2636C206.925 72.2636 203.738 68.956 203.738 61.3957ZM218.145 61.7107V61.2382C218.145 57.0232 216.728 54.6607 213.421 54.6607C209.916 54.6607 208.629 56.7151 208.629 61.1971V61.7107C208.629 66.162 209.889 68.2164 213.421 68.2164C216.769 68.2061 218.145 65.8983 218.145 61.7107Z" fill="#272727"/>
<path d="M226.843 66.4359C226.843 60.8034 232.237 59.2454 239.85 59.2454V57.5129C239.85 55.7426 239.22 54.3628 236.307 54.3628C233.278 54.3628 232.49 55.5852 232.49 56.6877V57.239H227.917C227.88 56.9518 227.866 56.6621 227.876 56.3727C227.876 52.7877 231.262 50.6237 236.3 50.6237C241.89 50.6237 244.566 53.0205 244.566 57.1602V67.042C244.542 67.3807 244.653 67.7153 244.875 67.9721C245.097 68.229 245.412 68.387 245.751 68.4116H247.195V71.6404C246.263 72.0432 245.256 72.2439 244.241 72.2294C242.187 72.2294 240.777 71.1679 240.305 69.4354H240.031C238.662 71.1268 236.646 72.2705 233.418 72.2705C231.056 72.2636 226.843 71.4761 226.843 66.4359ZM239.85 63.5221V62.577C235.362 62.577 231.703 63.207 231.703 65.9634C231.703 67.6172 232.764 68.4835 234.852 68.4835C237.984 68.4835 239.832 66.5147 239.832 63.5221H239.85Z" fill="#272727"/>
<path d="M250.539 67.1036V54.9414H248.02V51.0791H250.618L251.484 45.2891H255.249V51.0791H258.792V54.9414H255.263V66.6345C255.263 67.7781 255.814 68.4081 256.974 68.4081H258.823V71.637C257.762 72.027 256.645 72.2399 255.516 72.267C251.682 72.2636 250.539 69.6648 250.539 67.1036Z" fill="#272727"/>
<path d="M262.625 43.3203H267.281V47.9667H262.625V43.3203ZM262.625 51.0791H267.349V71.7911H262.625V51.0791Z" fill="#272727"/>
<path d="M271.521 61.4471C271.521 54.0067 274.944 50.6203 281.715 50.6203C288.485 50.6203 291.925 53.993 291.925 61.4471C291.925 68.9012 288.502 72.2773 281.729 72.2773C274.955 72.2773 271.521 68.8772 271.521 61.4471ZM287.031 61.7244V61.1732C287.031 56.6843 285.494 54.4792 281.715 54.4792C277.936 54.4792 276.403 56.6843 276.403 61.1732V61.7244C276.403 66.2133 277.898 68.4184 281.715 68.4184C285.531 68.4184 287.031 66.1996 287.031 61.7107V61.7244Z" fill="#272727"/>
<path d="M296.122 51.0791H300.02L300.414 53.8355H300.688C301.454 52.8032 302.458 51.9709 303.613 51.4088C304.769 50.8468 306.044 50.5716 307.328 50.6066C311.265 50.6066 314.02 52.5343 314.02 57.7971V71.7774H309.296V58.6394C309.296 55.6844 307.838 54.7017 305.477 54.7017C302.879 54.7017 300.832 56.787 300.832 59.7419V71.7911H296.108L296.122 51.0791Z" fill="#272727"/>
<path d="M112.06 22.3344C112.06 12.843 116.852 8.35405 125.132 8.35405C131.861 8.35405 137.057 11.7404 137.057 18.7905H131.902C131.902 14.7741 129.147 12.6067 125.21 12.6067C119.778 12.6067 117.218 15.7568 117.218 21.9406V22.7281C117.218 29.0284 119.737 32.0586 125.21 32.0586C129.383 32.0586 132.097 29.8946 132.097 25.957H137.057C137.057 33.0037 131.94 36.3147 125.132 36.3147C116.862 36.3113 112.06 32.0586 112.06 22.3344Z" fill="#272727"/>
<path d="M139.97 30.4836C139.97 24.8545 145.361 23.2931 152.96 23.2931V21.5468C152.96 19.7732 152.33 18.3967 149.417 18.3967C146.384 18.3967 145.597 19.6157 145.597 20.7182V21.2695H141.031C140.996 20.9821 140.984 20.6925 140.993 20.4032C140.993 16.8217 144.378 14.6543 149.417 14.6543C155.007 14.6543 157.683 17.0511 157.683 21.1907V31.0759C157.659 31.4135 157.769 31.7472 157.989 32.0038C158.21 32.2605 158.523 32.4193 158.861 32.4455C158.925 32.449 158.989 32.449 159.052 32.4455H160.312V35.6744C159.381 36.0779 158.376 36.2798 157.361 36.2668C155.308 36.2668 153.897 35.2019 153.425 33.4693H153.148C151.779 35.1813 149.763 36.3044 146.535 36.3044C144.18 36.3113 139.97 35.5237 139.97 30.4836ZM152.956 27.5697V26.6247C148.469 26.6247 144.806 27.2547 144.806 30.0111C144.806 31.6649 145.871 32.5311 147.955 32.5311C151.108 32.5311 152.956 30.5623 152.956 27.5697Z" fill="#272727"/>
<path d="M163.389 15.1268H167.288L167.719 18.3967H168.017C168.763 16.4279 170.071 14.6543 172.662 14.6543C173.333 14.6459 174.001 14.762 174.63 14.9967V19.4479H173.117C169.889 19.4479 168.116 21.2216 168.116 25.0394V35.8285H163.393L163.389 15.1268Z" fill="#272727"/>
<path d="M176.615 25.4434C176.615 18.003 179.963 14.6543 184.567 14.6543C187.401 14.6543 189.526 15.5993 190.786 17.5305H191.022V7.37136H195.742V35.8388H191.85L191.457 33.0995H191.221C189.851 35.2669 187.52 36.3318 184.881 36.3318C179.805 36.3113 176.615 33.0037 176.615 25.4434ZM191.022 25.7584V25.2859C191.022 21.0743 189.605 18.7117 186.298 18.7117C182.797 18.7117 181.506 20.7662 181.506 25.2482V25.7584C181.506 30.2096 182.766 32.2641 186.298 32.2641C189.646 32.2641 191.022 29.946 191.022 25.7584Z" fill="#272727"/>
<path d="M199.723 30.4836C199.723 24.8545 205.114 23.2931 212.73 23.2931V21.5468C212.73 19.7732 212.1 18.3967 209.187 18.3967C206.155 18.3967 205.367 19.6157 205.367 20.7182V21.2695H200.784C200.749 20.9821 200.737 20.6925 200.746 20.4032C200.746 16.8217 204.132 14.6543 209.17 14.6543C214.76 14.6543 217.436 17.0511 217.436 21.1907V31.0759C217.412 31.4135 217.522 31.7472 217.743 32.0038C217.963 32.2605 218.277 32.4193 218.614 32.4455C218.678 32.449 218.742 32.449 218.806 32.4455H220.065V35.6744C219.135 36.0779 218.129 36.2798 217.115 36.2668C215.061 36.2668 213.651 35.2019 213.178 33.4693H212.901C211.532 35.1813 209.516 36.3044 206.288 36.3044C203.933 36.3113 199.723 35.5237 199.723 30.4836ZM212.73 27.5697V26.6247C208.243 26.6247 204.58 27.2547 204.58 30.0111C204.58 31.6649 205.645 32.5311 207.729 32.5311C210.861 32.5311 212.713 30.5623 212.713 27.5697H212.73Z" fill="#272727"/>
<path d="M223.142 15.1268H227.041L227.435 17.8831H227.709C228.477 16.8498 229.483 16.0169 230.641 15.4548C231.799 14.8928 233.076 14.6182 234.363 14.6543C238.299 14.6543 241.054 16.5854 241.054 21.8447V35.8216H236.331V22.6871C236.331 19.7355 234.873 18.7494 232.511 18.7494C229.913 18.7494 227.866 20.8381 227.866 23.7896V35.8388H223.142V15.1268Z" fill="#272727"/>
<path d="M245.148 25.4948C245.148 18.0509 248.571 14.6645 255.342 14.6645C262.112 14.6645 265.538 18.0406 265.538 25.4948C265.538 32.9489 262.115 36.3215 255.342 36.3215C248.568 36.3215 245.148 32.9249 245.148 25.4948ZM260.657 25.7687V25.2071C260.657 20.7182 259.12 18.5132 255.342 18.5132C251.563 18.5132 250.029 20.7182 250.029 25.2071V25.7584C250.029 30.2473 251.525 32.4524 255.342 32.4524C259.158 32.4524 260.657 30.2473 260.657 25.7584V25.7687Z" fill="#272727"/>
</svg>